<svg width="400" height="600" viewBox="0 0 400 600" fill="none" xmlns="http://www.w3.org/2000/svg">
<g id="Frame">
<rect width="400" height="600" fill="white"/>
<path id="text" d="M193.866 58.3636H195.275V66.0682C195.275 66.8636 195.087 67.5739 194.712 68.1989C194.341 68.8201 193.817 69.3106 193.138 69.6705C192.46 70.0265 191.665 70.2045 190.752 70.2045C189.839 70.2045 189.044 70.0265 188.366 69.6705C187.688 69.3106 187.161 68.8201 186.786 68.1989C186.415 67.5739 186.229 66.8636 186.229 66.0682V58.3636H187.638V65.9545C187.638 66.5227 187.763 67.0284 188.013 67.4716C188.263 67.911 188.62 68.2576 189.082 68.5114C189.548 68.7614 190.104 68.8864 190.752 68.8864C191.4 68.8864 191.957 68.7614 192.423 68.5114C192.888 68.2576 193.245 67.911 193.491 67.4716C193.741 67.0284 193.866 66.5227 193.866 65.9545V58.3636ZM204.089 63.2273L202.884 63.5682C202.808 63.3674 202.697 63.1723 202.549 62.983C202.405 62.7898 202.208 62.6307 201.958 62.5057C201.708 62.3807 201.388 62.3182 200.998 62.3182C200.464 62.3182 200.019 62.4413 199.663 62.6875C199.31 62.9299 199.134 63.2386 199.134 63.6136C199.134 63.947 199.255 64.2102 199.498 64.4034C199.74 64.5966 200.119 64.7576 200.634 64.8864L201.93 65.2045C202.71 65.3939 203.291 65.6837 203.674 66.0739C204.057 66.4602 204.248 66.9583 204.248 67.5682C204.248 68.0682 204.104 68.5152 203.816 68.9091C203.532 69.303 203.134 69.6136 202.623 69.8409C202.112 70.0682 201.517 70.1818 200.839 70.1818C199.949 70.1818 199.212 69.9886 198.629 69.6023C198.045 69.2159 197.676 68.6515 197.521 67.9091L198.793 67.5909C198.915 68.0606 199.144 68.4129 199.481 68.6477C199.822 68.8826 200.267 69 200.816 69C201.441 69 201.937 68.8674 202.305 68.6023C202.676 68.3333 202.862 68.0114 202.862 67.6364C202.862 67.3333 202.755 67.0795 202.543 66.875C202.331 66.6667 202.005 66.5114 201.566 66.4091L200.112 66.0682C199.312 65.8788 198.725 65.5852 198.35 65.1875C197.979 64.786 197.793 64.2841 197.793 63.6818C197.793 63.1894 197.932 62.7538 198.208 62.375C198.488 61.9962 198.869 61.6989 199.35 61.483C199.835 61.267 200.384 61.1591 200.998 61.1591C201.862 61.1591 202.54 61.3485 203.032 61.7273C203.528 62.1061 203.88 62.6061 204.089 63.2273ZM209.925 70.1818C209.085 70.1818 208.359 69.9962 207.749 69.625C207.143 69.25 206.675 68.7273 206.346 68.0568C206.02 67.3826 205.857 66.5985 205.857 65.7045C205.857 64.8106 206.02 64.0227 206.346 63.3409C206.675 62.6553 207.134 62.1212 207.721 61.7386C208.312 61.3523 209.001 61.1591 209.789 61.1591C210.244 61.1591 210.692 61.2348 211.136 61.3864C211.579 61.5379 211.982 61.7841 212.346 62.125C212.71 62.4621 212.999 62.9091 213.215 63.4659C213.431 64.0227 213.539 64.7083 213.539 65.5227V66.0909H206.812V64.9318H212.175C212.175 64.4394 212.077 64 211.88 63.6136C211.687 63.2273 211.41 62.9223 211.05 62.6989C210.694 62.4754 210.274 62.3636 209.789 62.3636C209.255 62.3636 208.793 62.4962 208.403 62.7614C208.016 63.0227 207.719 63.3636 207.511 63.7841C207.302 64.2045 207.198 64.6553 207.198 65.1364V65.9091C207.198 66.5682 207.312 67.1269 207.539 67.5852C207.77 68.0398 208.09 68.3864 208.499 68.625C208.908 68.8598 209.384 68.9773 209.925 68.9773C210.278 68.9773 210.596 68.928 210.88 68.8295C211.168 68.7273 211.416 68.5758 211.624 68.375C211.833 68.1705 211.994 67.9167 212.107 67.6136L213.403 67.9773C213.266 68.4167 213.037 68.803 212.715 69.1364C212.393 69.4659 211.996 69.7235 211.522 69.9091C211.049 70.0909 210.516 70.1818 209.925 70.1818ZM220.261 70V58.3636H221.602V62.6591H221.715C221.814 62.5076 221.95 62.3144 222.124 62.0795C222.302 61.8409 222.556 61.6288 222.886 61.4432C223.219 61.2538 223.67 61.1591 224.238 61.1591C224.973 61.1591 225.621 61.3428 226.181 61.7102C226.742 62.0777 227.179 62.5985 227.494 63.2727C227.808 63.947 227.965 64.7424 227.965 65.6591C227.965 66.5833 227.808 67.3845 227.494 68.0625C227.179 68.7367 226.744 69.2595 226.187 69.6307C225.63 69.9981 224.988 70.1818 224.261 70.1818C223.7 70.1818 223.251 70.089 222.914 69.9034C222.577 69.714 222.317 69.5 222.136 69.2614C221.954 69.0189 221.814 68.8182 221.715 68.6591H221.556V70H220.261ZM221.579 65.6364C221.579 66.2955 221.675 66.8769 221.869 67.3807C222.062 67.8807 222.344 68.2727 222.715 68.5568C223.086 68.8371 223.541 68.9773 224.079 68.9773C224.639 68.9773 225.107 68.8295 225.482 68.5341C225.861 68.2348 226.145 67.8333 226.335 67.3295C226.528 66.822 226.624 66.2576 226.624 65.6364C226.624 65.0227 226.53 64.4697 226.34 63.9773C226.155 63.4811 225.872 63.089 225.494 62.8011C225.119 62.5095 224.647 62.3636 224.079 62.3636C223.533 62.3636 223.075 62.5019 222.704 62.7784C222.333 63.0511 222.052 63.4337 221.863 63.9261C221.674 64.4148 221.579 64.9848 221.579 65.6364ZM235.516 66.4318V61.2727H236.857V70H235.516V68.5227H235.425C235.221 68.9659 234.903 69.3428 234.471 69.6534C234.039 69.9602 233.494 70.1136 232.835 70.1136C232.289 70.1136 231.804 69.9943 231.38 69.7557C230.956 69.5133 230.622 69.1496 230.38 68.6648C230.138 68.1761 230.016 67.5606 230.016 66.8182V61.2727H231.357V66.7273C231.357 67.3636 231.535 67.8712 231.891 68.25C232.251 68.6288 232.71 68.8182 233.266 68.8182C233.6 68.8182 233.939 68.733 234.283 68.5625C234.632 68.392 234.924 68.1307 235.158 67.7784C235.397 67.4261 235.516 66.9773 235.516 66.4318ZM243.109 61.2727V62.4091H238.586V61.2727H243.109ZM239.904 59.1818H241.245V67.5C241.245 67.8788 241.3 68.1629 241.41 68.3523C241.523 68.5379 241.667 68.6629 241.842 68.7273C242.02 68.7879 242.207 68.8182 242.404 68.8182C242.552 68.8182 242.673 68.8106 242.768 68.7955C242.862 68.7765 242.938 68.7614 242.995 68.75L243.268 69.9545C243.177 69.9886 243.05 70.0227 242.887 70.0568C242.724 70.0947 242.518 70.1136 242.268 70.1136C241.889 70.1136 241.518 70.0322 241.154 69.8693C240.794 69.7064 240.495 69.4583 240.256 69.125C240.022 68.7917 239.904 68.3712 239.904 67.8636V59.1818ZM248.921 61.2727V62.4091H244.398V61.2727H248.921ZM245.717 59.1818H247.058V67.5C247.058 67.8788 247.112 68.1629 247.222 68.3523C247.336 68.5379 247.48 68.6629 247.654 68.7273C247.832 68.7879 248.02 68.8182 248.217 68.8182C248.364 68.8182 248.486 68.8106 248.58 68.7955C248.675 68.7765 248.751 68.7614 248.808 68.75L249.08 69.9545C248.989 69.9886 248.862 70.0227 248.7 70.0568C248.537 70.0947 248.33 70.1136 248.08 70.1136C247.701 70.1136 247.33 70.0322 246.967 69.8693C246.607 69.7064 246.308 69.4583 246.069 69.125C245.834 68.7917 245.717 68.3712 245.717 67.8636V59.1818ZM254.39 70.1818C253.602 70.1818 252.911 69.9943 252.316 69.6193C251.725 69.2443 251.263 68.7197 250.93 68.0455C250.6 67.3712 250.435 66.5833 250.435 65.6818C250.435 64.7727 250.6 63.9792 250.93 63.3011C251.263 62.6231 251.725 62.0966 252.316 61.7216C252.911 61.3466 253.602 61.1591 254.39 61.1591C255.178 61.1591 255.867 61.3466 256.458 61.7216C257.053 62.0966 257.515 62.6231 257.844 63.3011C258.178 63.9792 258.344 64.7727 258.344 65.6818C258.344 66.5833 258.178 67.3712 257.844 68.0455C257.515 68.7197 257.053 69.2443 256.458 69.6193C255.867 69.9943 255.178 70.1818 254.39 70.1818ZM254.39 68.9773C254.988 68.9773 255.481 68.8239 255.867 68.517C256.254 68.2102 256.54 67.8068 256.725 67.3068C256.911 66.8068 257.004 66.2652 257.004 65.6818C257.004 65.0985 256.911 64.5549 256.725 64.0511C256.54 63.5473 256.254 63.1402 255.867 62.8295C255.481 62.5189 254.988 62.3636 254.39 62.3636C253.791 62.3636 253.299 62.5189 252.913 62.8295C252.526 63.1402 252.24 63.5473 252.055 64.0511C251.869 64.5549 251.776 65.0985 251.776 65.6818C251.776 66.2652 251.869 66.8068 252.055 67.3068C252.24 67.8068 252.526 68.2102 252.913 68.517C253.299 68.8239 253.791 68.9773 254.39 68.9773ZM261.732 64.75V70H260.391V61.2727H261.687V62.6364H261.8C262.005 62.1932 262.316 61.8371 262.732 61.5682C263.149 61.2955 263.687 61.1591 264.346 61.1591C264.937 61.1591 265.454 61.2803 265.897 61.5227C266.34 61.7614 266.685 62.125 266.931 62.6136C267.177 63.0985 267.3 63.7121 267.3 64.4545V70H265.96V64.5455C265.96 63.8598 265.781 63.3258 265.425 62.9432C265.069 62.5568 264.581 62.3636 263.96 62.3636C263.531 62.3636 263.149 62.4564 262.812 62.642C262.478 62.8277 262.215 63.0985 262.022 63.4545C261.829 63.8106 261.732 64.2424 261.732 64.75ZM275.933 63.2273L274.728 63.5682C274.652 63.3674 274.54 63.1723 274.393 62.983C274.249 62.7898 274.052 62.6307 273.802 62.5057C273.552 62.3807 273.232 62.3182 272.842 62.3182C272.308 62.3182 271.862 62.4413 271.506 62.6875C271.154 62.9299 270.978 63.2386 270.978 63.6136C270.978 63.947 271.099 64.2102 271.342 64.4034C271.584 64.5966 271.963 64.7576 272.478 64.8864L273.773 65.2045C274.554 65.3939 275.135 65.6837 275.518 66.0739C275.9 66.4602 276.092 66.9583 276.092 67.5682C276.092 68.0682 275.948 68.5152 275.66 68.9091C275.376 69.303 274.978 69.6136 274.467 69.8409C273.955 70.0682 273.361 70.1818 272.683 70.1818C271.792 70.1818 271.056 69.9886 270.472 69.6023C269.889 69.2159 269.52 68.6515 269.364 67.9091L270.637 67.5909C270.758 68.0606 270.987 68.4129 271.325 68.6477C271.665 68.8826 272.111 69 272.66 69C273.285 69 273.781 68.8674 274.148 68.6023C274.52 68.3333 274.705 68.0114 274.705 67.6364C274.705 67.3333 274.599 67.0795 274.387 66.875C274.175 66.6667 273.849 66.5114 273.41 66.4091L271.955 66.0682C271.156 65.8788 270.569 65.5852 270.194 65.1875C269.823 64.786 269.637 64.2841 269.637 63.6818C269.637 63.1894 269.775 62.7538 270.052 62.375C270.332 61.9962 270.713 61.6989 271.194 61.483C271.679 61.267 272.228 61.1591 272.842 61.1591C273.705 61.1591 274.383 61.3485 274.876 61.7273C275.372 62.1061 275.724 62.6061 275.933 63.2273ZM282.792 70V58.3636H284.133V62.6591H284.246C284.345 62.5076 284.481 62.3144 284.656 62.0795C284.834 61.8409 285.087 61.6288 285.417 61.4432C285.75 61.2538 286.201 61.1591 286.769 61.1591C287.504 61.1591 288.152 61.3428 288.712 61.7102C289.273 62.0777 289.71 62.5985 290.025 63.2727C290.339 63.947 290.496 64.7424 290.496 65.6591C290.496 66.5833 290.339 67.3845 290.025 68.0625C289.71 68.7367 289.275 69.2595 288.718 69.6307C288.161 69.9981 287.519 70.1818 286.792 70.1818C286.231 70.1818 285.782 70.089 285.445 69.9034C285.108 69.714 284.849 69.5 284.667 69.2614C284.485 69.0189 284.345 68.8182 284.246 68.6591H284.087V70H282.792ZM284.11 65.6364C284.11 66.2955 284.207 66.8769 284.4 67.3807C284.593 67.8807 284.875 68.2727 285.246 68.5568C285.618 68.8371 286.072 68.9773 286.61 68.9773C287.171 68.9773 287.638 68.8295 288.013 68.5341C288.392 68.2348 288.676 67.8333 288.866 67.3295C289.059 66.822 289.156 66.2576 289.156 65.6364C289.156 65.0227 289.061 64.4697 288.871 63.9773C288.686 63.4811 288.404 63.089 288.025 62.8011C287.65 62.5095 287.178 62.3636 286.61 62.3636C286.065 62.3636 285.606 62.5019 285.235 62.7784C284.864 63.0511 284.584 63.4337 284.394 63.9261C284.205 64.4148 284.11 64.9848 284.11 65.6364ZM296.207 70.1818C295.366 70.1818 294.64 69.9962 294.031 69.625C293.424 69.25 292.957 68.7273 292.627 68.0568C292.301 67.3826 292.138 66.5985 292.138 65.7045C292.138 64.8106 292.301 64.0227 292.627 63.3409C292.957 62.6553 293.415 62.1212 294.002 61.7386C294.593 61.3523 295.282 61.1591 296.07 61.1591C296.525 61.1591 296.974 61.2348 297.417 61.3864C297.86 61.5379 298.263 61.7841 298.627 62.125C298.991 62.4621 299.281 62.9091 299.496 63.4659C299.712 64.0227 299.82 64.7083 299.82 65.5227V66.0909H293.093V64.9318H298.457C298.457 64.4394 298.358 64 298.161 63.6136C297.968 63.2273 297.692 62.9223 297.332 62.6989C296.976 62.4754 296.555 62.3636 296.07 62.3636C295.536 62.3636 295.074 62.4962 294.684 62.7614C294.298 63.0227 294 63.3636 293.792 63.7841C293.584 64.2045 293.479 64.6553 293.479 65.1364V65.9091C293.479 66.5682 293.593 67.1269 293.82 67.5852C294.051 68.0398 294.371 68.3864 294.781 68.625C295.19 68.8598 295.665 68.9773 296.207 68.9773C296.559 68.9773 296.877 68.928 297.161 68.8295C297.449 68.7273 297.697 68.5758 297.906 68.375C298.114 68.1705 298.275 67.9167 298.388 67.6136L299.684 67.9773C299.548 68.4167 299.318 68.803 298.996 69.1364C298.674 69.4659 298.277 69.7235 297.803 69.9091C297.33 70.0909 296.798 70.1818 296.207 70.1818ZM303.201 58.3636V70H301.86V58.3636H303.201ZM309.202 70.1818C308.415 70.1818 307.723 69.9943 307.129 69.6193C306.538 69.2443 306.076 68.7197 305.742 68.0455C305.413 67.3712 305.248 66.5833 305.248 65.6818C305.248 64.7727 305.413 63.9792 305.742 63.3011C306.076 62.6231 306.538 62.0966 307.129 61.7216C307.723 61.3466 308.415 61.1591 309.202 61.1591C309.99 61.1591 310.68 61.3466 311.271 61.7216C311.865 62.0966 312.327 62.6231 312.657 63.3011C312.99 63.9792 313.157 64.7727 313.157 65.6818C313.157 66.5833 312.99 67.3712 312.657 68.0455C312.327 68.7197 311.865 69.2443 311.271 69.6193C310.68 69.9943 309.99 70.1818 309.202 70.1818ZM309.202 68.9773C309.801 68.9773 310.293 68.8239 310.68 68.517C311.066 68.2102 311.352 67.8068 311.538 67.3068C311.723 66.8068 311.816 66.2652 311.816 65.6818C311.816 65.0985 311.723 64.5549 311.538 64.0511C311.352 63.5473 311.066 63.1402 310.68 62.8295C310.293 62.5189 309.801 62.3636 309.202 62.3636C308.604 62.3636 308.112 62.5189 307.725 62.8295C307.339 63.1402 307.053 63.5473 306.867 64.0511C306.682 64.5549 306.589 65.0985 306.589 65.6818C306.589 66.2652 306.682 66.8068 306.867 67.3068C307.053 67.8068 307.339 68.2102 307.725 68.517C308.112 68.8239 308.604 68.9773 309.202 68.9773ZM316.884 70L314.225 61.2727H315.634L317.521 67.9545H317.612L319.475 61.2727H320.907L322.748 67.9318H322.839L324.725 61.2727H326.134L323.475 70H322.157L320.248 63.2955H320.112L318.202 70H316.884ZM203.546 80.2727V81.4091H199.023V80.2727H203.546ZM200.342 78.1818H201.683V86.5C201.683 86.8788 201.737 87.1629 201.847 87.3523C201.961 87.5379 202.105 87.6629 202.279 87.7273C202.457 87.7879 202.645 87.8182 202.842 87.8182C202.989 87.8182 203.111 87.8106 203.205 87.7955C203.3 87.7765 203.376 87.7614 203.433 87.75L203.705 88.9545C203.614 88.9886 203.487 89.0227 203.325 89.0568C203.162 89.0947 202.955 89.1136 202.705 89.1136C202.326 89.1136 201.955 89.0322 201.592 88.8693C201.232 88.7064 200.933 88.4583 200.694 88.125C200.459 87.7917 200.342 87.3712 200.342 86.8636V78.1818ZM209.015 89.1818C208.227 89.1818 207.536 88.9943 206.941 88.6193C206.35 88.2443 205.888 87.7197 205.555 87.0455C205.225 86.3712 205.06 85.5833 205.06 84.6818C205.06 83.7727 205.225 82.9792 205.555 82.3011C205.888 81.6231 206.35 81.0966 206.941 80.7216C207.536 80.3466 208.227 80.1591 209.015 80.1591C209.803 80.1591 210.492 80.3466 211.083 80.7216C211.678 81.0966 212.14 81.6231 212.469 82.3011C212.803 82.9792 212.969 83.7727 212.969 84.6818C212.969 85.5833 212.803 86.3712 212.469 87.0455C212.14 87.7197 211.678 88.2443 211.083 88.6193C210.492 88.9943 209.803 89.1818 209.015 89.1818ZM209.015 87.9773C209.613 87.9773 210.106 87.8239 210.492 87.517C210.879 87.2102 211.165 86.8068 211.35 86.3068C211.536 85.8068 211.629 85.2652 211.629 84.6818C211.629 84.0985 211.536 83.5549 211.35 83.0511C211.165 82.5473 210.879 82.1402 210.492 81.8295C210.106 81.5189 209.613 81.3636 209.015 81.3636C208.416 81.3636 207.924 81.5189 207.538 81.8295C207.151 82.1402 206.865 82.5473 206.68 83.0511C206.494 83.5549 206.401 84.0985 206.401 84.6818C206.401 85.2652 206.494 85.8068 206.68 86.3068C206.865 86.8068 207.151 87.2102 207.538 87.517C207.924 87.8239 208.416 87.9773 209.015 87.9773ZM223.062 89.1818C222.244 89.1818 221.539 88.9886 220.948 88.6023C220.357 88.2159 219.903 87.6837 219.585 87.0057C219.266 86.3277 219.107 85.553 219.107 84.6818C219.107 83.7955 219.27 83.0133 219.596 82.3352C219.925 81.6534 220.384 81.1212 220.971 80.7386C221.562 80.3523 222.251 80.1591 223.039 80.1591C223.653 80.1591 224.206 80.2727 224.698 80.5C225.191 80.7273 225.594 81.0455 225.908 81.4545C226.223 81.8636 226.418 82.3409 226.494 82.8864H225.153C225.05 82.4886 224.823 82.1364 224.471 81.8295C224.122 81.5189 223.653 81.3636 223.062 81.3636C222.539 81.3636 222.081 81.5 221.687 81.7727C221.297 82.0417 220.992 82.4223 220.772 82.9148C220.556 83.4034 220.448 83.9773 220.448 84.6364C220.448 85.3106 220.554 85.8977 220.766 86.3977C220.982 86.8977 221.285 87.286 221.675 87.5625C222.069 87.839 222.531 87.9773 223.062 87.9773C223.41 87.9773 223.727 87.9167 224.011 87.7955C224.295 87.6742 224.535 87.5 224.732 87.2727C224.929 87.0455 225.069 86.7727 225.153 86.4545H226.494C226.418 86.9697 226.23 87.4337 225.931 87.8466C225.636 88.2557 225.244 88.5814 224.755 88.8239C224.27 89.0625 223.706 89.1818 223.062 89.1818ZM231.999 89.1818C231.211 89.1818 230.52 88.9943 229.925 88.6193C229.335 88.2443 228.872 87.7197 228.539 87.0455C228.21 86.3712 228.045 85.5833 228.045 84.6818C228.045 83.7727 228.21 82.9792 228.539 82.3011C228.872 81.6231 229.335 81.0966 229.925 80.7216C230.52 80.3466 231.211 80.1591 231.999 80.1591C232.787 80.1591 233.477 80.3466 234.067 80.7216C234.662 81.0966 235.124 81.6231 235.454 82.3011C235.787 82.9792 235.954 83.7727 235.954 84.6818C235.954 85.5833 235.787 86.3712 235.454 87.0455C235.124 87.7197 234.662 88.2443 234.067 88.6193C233.477 88.9943 232.787 89.1818 231.999 89.1818ZM231.999 87.9773C232.598 87.9773 233.09 87.8239 233.477 87.517C233.863 87.2102 234.149 86.8068 234.335 86.3068C234.52 85.8068 234.613 85.2652 234.613 84.6818C234.613 84.0985 234.52 83.5549 234.335 83.0511C234.149 82.5473 233.863 82.1402 233.477 81.8295C233.09 81.5189 232.598 81.3636 231.999 81.3636C231.401 81.3636 230.908 81.5189 230.522 81.8295C230.136 82.1402 229.85 82.5473 229.664 83.0511C229.478 83.5549 229.386 84.0985 229.386 84.6818C229.386 85.2652 229.478 85.8068 229.664 86.3068C229.85 86.8068 230.136 87.2102 230.522 87.517C230.908 87.8239 231.401 87.9773 231.999 87.9773ZM239.342 83.75V89H238.001V80.2727H239.296V81.6364H239.41C239.614 81.1932 239.925 80.8371 240.342 80.5682C240.758 80.2955 241.296 80.1591 241.955 80.1591C242.546 80.1591 243.063 80.2803 243.506 80.5227C243.95 80.7614 244.294 81.125 244.54 81.6136C244.787 82.0985 244.91 82.7121 244.91 83.4545V89H243.569V83.5455C243.569 82.8598 243.391 82.3258 243.035 81.9432C242.679 81.5568 242.19 81.3636 241.569 81.3636C241.141 81.3636 240.758 81.4564 240.421 81.642C240.088 81.8277 239.825 82.0985 239.631 82.4545C239.438 82.8106 239.342 83.2424 239.342 83.75ZM251.156 80.2727V81.4091H246.633V80.2727H251.156ZM247.951 78.1818H249.292V86.5C249.292 86.8788 249.347 87.1629 249.457 87.3523C249.57 87.5379 249.714 87.6629 249.888 87.7273C250.067 87.7879 250.254 87.8182 250.451 87.8182C250.599 87.8182 250.72 87.8106 250.815 87.7955C250.909 87.7765 250.985 87.7614 251.042 87.75L251.315 88.9545C251.224 88.9886 251.097 89.0227 250.934 89.0568C250.771 89.0947 250.565 89.1136 250.315 89.1136C249.936 89.1136 249.565 89.0322 249.201 88.8693C248.841 88.7064 248.542 88.4583 248.303 88.125C248.068 87.7917 247.951 87.3712 247.951 86.8636V78.1818ZM253.173 89V80.2727H254.513V89H253.173ZM253.854 78.8182C253.593 78.8182 253.368 78.7292 253.178 78.5511C252.993 78.3731 252.9 78.1591 252.9 77.9091C252.9 77.6591 252.993 77.4451 253.178 77.267C253.368 77.089 253.593 77 253.854 77C254.116 77 254.339 77.089 254.525 77.267C254.714 77.4451 254.809 77.6591 254.809 77.9091C254.809 78.1591 254.714 78.3731 254.525 78.5511C254.339 78.7292 254.116 78.8182 253.854 78.8182ZM258.31 83.75V89H256.969V80.2727H258.265V81.6364H258.379C258.583 81.1932 258.894 80.8371 259.31 80.5682C259.727 80.2955 260.265 80.1591 260.924 80.1591C261.515 80.1591 262.032 80.2803 262.475 80.5227C262.918 80.7614 263.263 81.125 263.509 81.6136C263.755 82.0985 263.879 82.7121 263.879 83.4545V89H262.538V83.5455C262.538 82.8598 262.36 82.3258 262.004 81.9432C261.647 81.5568 261.159 81.3636 260.538 81.3636C260.11 81.3636 259.727 81.4564 259.39 81.642C259.057 81.8277 258.793 82.0985 258.6 82.4545C258.407 82.8106 258.31 83.2424 258.31 83.75ZM271.829 85.4318V80.2727H273.17V89H271.829V87.5227H271.738C271.533 87.9659 271.215 88.3428 270.783 88.6534C270.352 88.9602 269.806 89.1136 269.147 89.1136C268.602 89.1136 268.117 88.9943 267.692 88.7557C267.268 88.5133 266.935 88.1496 266.692 87.6648C266.45 87.1761 266.329 86.5606 266.329 85.8182V80.2727H267.67V85.7273C267.67 86.3636 267.848 86.8712 268.204 87.25C268.564 87.6288 269.022 87.8182 269.579 87.8182C269.912 87.8182 270.251 87.733 270.596 87.5625C270.944 87.392 271.236 87.1307 271.471 86.7784C271.71 86.4261 271.829 85.9773 271.829 85.4318ZM279.285 89.1818C278.444 89.1818 277.719 88.9962 277.109 88.625C276.503 88.25 276.035 87.7273 275.705 87.0568C275.379 86.3826 275.217 85.5985 275.217 84.7045C275.217 83.8106 275.379 83.0227 275.705 82.3409C276.035 81.6553 276.493 81.1212 277.08 80.7386C277.671 80.3523 278.361 80.1591 279.148 80.1591C279.603 80.1591 280.052 80.2348 280.495 80.3864C280.938 80.5379 281.342 80.7841 281.705 81.125C282.069 81.4621 282.359 81.9091 282.575 82.4659C282.79 83.0227 282.898 83.7083 282.898 84.5227V85.0909H276.171V83.9318H281.535C281.535 83.4394 281.436 83 281.239 82.6136C281.046 82.2273 280.77 81.9223 280.41 81.6989C280.054 81.4754 279.633 81.3636 279.148 81.3636C278.614 81.3636 278.152 81.4962 277.762 81.7614C277.376 82.0227 277.078 82.3636 276.87 82.7841C276.662 83.2045 276.558 83.6553 276.558 84.1364V84.9091C276.558 85.5682 276.671 86.1269 276.898 86.5852C277.129 87.0398 277.45 87.3864 277.859 87.625C278.268 87.8598 278.743 87.9773 279.285 87.9773C279.637 87.9773 279.955 87.928 280.239 87.8295C280.527 87.7273 280.775 87.5758 280.984 87.375C281.192 87.1705 281.353 86.9167 281.467 86.6136L282.762 86.9773C282.626 87.4167 282.397 87.803 282.075 88.1364C281.753 88.4659 281.355 88.7235 280.881 88.9091C280.408 89.0909 279.876 89.1818 279.285 89.1818ZM293.234 80.2727V81.4091H288.711V80.2727H293.234ZM290.029 78.1818H291.37V86.5C291.37 86.8788 291.425 87.1629 291.535 87.3523C291.648 87.5379 291.792 87.6629 291.967 87.7273C292.145 87.7879 292.332 87.8182 292.529 87.8182C292.677 87.8182 292.798 87.8106 292.893 87.7955C292.987 87.7765 293.063 87.7614 293.12 87.75L293.393 88.9545C293.302 88.9886 293.175 89.0227 293.012 89.0568C292.849 89.0947 292.643 89.1136 292.393 89.1136C292.014 89.1136 291.643 89.0322 291.279 88.8693C290.919 88.7064 290.62 88.4583 290.381 88.125C290.147 87.7917 290.029 87.3712 290.029 86.8636V78.1818ZM296.779 83.75V89H295.438V77.3636H296.779V81.6364H296.893C297.097 81.1856 297.404 80.8277 297.813 80.5625C298.226 80.2936 298.775 80.1591 299.461 80.1591C300.056 80.1591 300.576 80.2784 301.023 80.517C301.47 80.7519 301.817 81.1136 302.063 81.6023C302.313 82.0871 302.438 82.7045 302.438 83.4545V89H301.097V83.5455C301.097 82.8523 300.917 82.3163 300.558 81.9375C300.201 81.5549 299.707 81.3636 299.075 81.3636C298.635 81.3636 298.241 81.4564 297.893 81.642C297.548 81.8277 297.275 82.0985 297.075 82.4545C296.878 82.8106 296.779 83.2424 296.779 83.75ZM308.55 89.1818C307.71 89.1818 306.984 88.9962 306.374 88.625C305.768 88.25 305.3 87.7273 304.971 87.0568C304.645 86.3826 304.482 85.5985 304.482 84.7045C304.482 83.8106 304.645 83.0227 304.971 82.3409C305.3 81.6553 305.759 81.1212 306.346 80.7386C306.937 80.3523 307.626 80.1591 308.414 80.1591C308.869 80.1591 309.317 80.2348 309.761 80.3864C310.204 80.5379 310.607 80.7841 310.971 81.125C311.335 81.4621 311.624 81.9091 311.84 82.4659C312.056 83.0227 312.164 83.7083 312.164 84.5227V85.0909H305.437V83.9318H310.8C310.8 83.4394 310.702 83 310.505 82.6136C310.312 82.2273 310.035 81.9223 309.675 81.6989C309.319 81.4754 308.899 81.3636 308.414 81.3636C307.88 81.3636 307.418 81.4962 307.028 81.7614C306.641 82.0227 306.344 82.3636 306.136 82.7841C305.927 83.2045 305.823 83.6553 305.823 84.1364V84.9091C305.823 85.5682 305.937 86.1269 306.164 86.5852C306.395 87.0398 306.715 87.3864 307.124 87.625C307.533 87.8598 308.009 87.9773 308.55 87.9773C308.903 87.9773 309.221 87.928 309.505 87.8295C309.793 87.7273 310.041 87.5758 310.249 87.375C310.458 87.1705 310.619 86.9167 310.732 86.6136L312.028 86.9773C311.891 87.4167 311.662 87.803 311.34 88.1364C311.018 88.4659 310.621 88.7235 310.147 88.9091C309.674 89.0909 309.141 89.1818 308.55 89.1818ZM214.132 108.182C213.314 108.182 212.609 107.989 212.018 107.602C211.428 107.216 210.973 106.684 210.655 106.006C210.337 105.328 210.178 104.553 210.178 103.682C210.178 102.795 210.34 102.013 210.666 101.335C210.996 100.653 211.454 100.121 212.041 99.7386C212.632 99.3523 213.321 99.1591 214.109 99.1591C214.723 99.1591 215.276 99.2727 215.768 99.5C216.261 99.7273 216.664 100.045 216.979 100.455C217.293 100.864 217.488 101.341 217.564 101.886H216.223C216.121 101.489 215.893 101.136 215.541 100.83C215.193 100.519 214.723 100.364 214.132 100.364C213.609 100.364 213.151 100.5 212.757 100.773C212.367 101.042 212.062 101.422 211.842 101.915C211.626 102.403 211.518 102.977 211.518 103.636C211.518 104.311 211.625 104.898 211.837 105.398C212.053 105.898 212.356 106.286 212.746 106.562C213.14 106.839 213.602 106.977 214.132 106.977C214.481 106.977 214.797 106.917 215.081 106.795C215.365 106.674 215.606 106.5 215.803 106.273C216 106.045 216.14 105.773 216.223 105.455H217.564C217.488 105.97 217.301 106.434 217.001 106.847C216.706 107.256 216.314 107.581 215.825 107.824C215.34 108.062 214.776 108.182 214.132 108.182ZM223.07 108.182C222.282 108.182 221.59 107.994 220.996 107.619C220.405 107.244 219.943 106.72 219.609 106.045C219.28 105.371 219.115 104.583 219.115 103.682C219.115 102.773 219.28 101.979 219.609 101.301C219.943 100.623 220.405 100.097 220.996 99.7216C221.59 99.3466 222.282 99.1591 223.07 99.1591C223.857 99.1591 224.547 99.3466 225.138 99.7216C225.732 100.097 226.195 100.623 226.524 101.301C226.857 101.979 227.024 102.773 227.024 103.682C227.024 104.583 226.857 105.371 226.524 106.045C226.195 106.72 225.732 107.244 225.138 107.619C224.547 107.994 223.857 108.182 223.07 108.182ZM223.07 106.977C223.668 106.977 224.161 106.824 224.547 106.517C224.933 106.21 225.219 105.807 225.405 105.307C225.59 104.807 225.683 104.265 225.683 103.682C225.683 103.098 225.59 102.555 225.405 102.051C225.219 101.547 224.933 101.14 224.547 100.83C224.161 100.519 223.668 100.364 223.07 100.364C222.471 100.364 221.979 100.519 221.592 100.83C221.206 101.14 220.92 101.547 220.734 102.051C220.549 102.555 220.456 103.098 220.456 103.682C220.456 104.265 220.549 104.807 220.734 105.307C220.92 105.807 221.206 106.21 221.592 106.517C221.979 106.824 222.471 106.977 223.07 106.977ZM230.412 102.75V108H229.071V99.2727H230.366V100.636H230.48C230.685 100.193 230.995 99.8371 231.412 99.5682C231.829 99.2955 232.366 99.1591 233.026 99.1591C233.616 99.1591 234.134 99.2803 234.577 99.5227C235.02 99.7614 235.365 100.125 235.611 100.614C235.857 101.098 235.98 101.712 235.98 102.455V108H234.639V102.545C234.639 101.86 234.461 101.326 234.105 100.943C233.749 100.557 233.26 100.364 232.639 100.364C232.211 100.364 231.829 100.456 231.491 100.642C231.158 100.828 230.895 101.098 230.702 101.455C230.509 101.811 230.412 102.242 230.412 102.75ZM245.254 99.2727L242.027 108H240.663L237.436 99.2727H238.891L241.3 106.227H241.391L243.8 99.2727H245.254ZM250.371 108.182C249.53 108.182 248.804 107.996 248.195 107.625C247.589 107.25 247.121 106.727 246.791 106.057C246.465 105.383 246.303 104.598 246.303 103.705C246.303 102.811 246.465 102.023 246.791 101.341C247.121 100.655 247.579 100.121 248.166 99.7386C248.757 99.3523 249.446 99.1591 250.234 99.1591C250.689 99.1591 251.138 99.2348 251.581 99.3864C252.024 99.5379 252.428 99.7841 252.791 100.125C253.155 100.462 253.445 100.909 253.661 101.466C253.876 102.023 253.984 102.708 253.984 103.523V104.091H247.257V102.932H252.621C252.621 102.439 252.522 102 252.325 101.614C252.132 101.227 251.856 100.922 251.496 100.699C251.14 100.475 250.719 100.364 250.234 100.364C249.7 100.364 249.238 100.496 248.848 100.761C248.462 101.023 248.164 101.364 247.956 101.784C247.748 102.205 247.643 102.655 247.643 103.136V103.909C247.643 104.568 247.757 105.127 247.984 105.585C248.215 106.04 248.536 106.386 248.945 106.625C249.354 106.86 249.829 106.977 250.371 106.977C250.723 106.977 251.041 106.928 251.325 106.83C251.613 106.727 251.861 106.576 252.07 106.375C252.278 106.17 252.439 105.917 252.553 105.614L253.848 105.977C253.712 106.417 253.482 106.803 253.161 107.136C252.839 107.466 252.441 107.723 251.967 107.909C251.494 108.091 250.962 108.182 250.371 108.182ZM256.024 108V99.2727H257.32V100.591H257.411C257.57 100.159 257.857 99.8087 258.274 99.5398C258.691 99.2708 259.161 99.1364 259.683 99.1364C259.782 99.1364 259.905 99.1383 260.053 99.142C260.2 99.1458 260.312 99.1515 260.388 99.1591V100.523C260.342 100.511 260.238 100.494 260.075 100.472C259.916 100.445 259.748 100.432 259.57 100.432C259.145 100.432 258.767 100.521 258.433 100.699C258.104 100.873 257.842 101.116 257.649 101.426C257.46 101.733 257.365 102.083 257.365 102.477V108H256.024ZM268.159 101.227L266.955 101.568C266.879 101.367 266.767 101.172 266.619 100.983C266.475 100.79 266.278 100.631 266.028 100.506C265.778 100.381 265.458 100.318 265.068 100.318C264.534 100.318 264.089 100.441 263.733 100.688C263.381 100.93 263.205 101.239 263.205 101.614C263.205 101.947 263.326 102.21 263.568 102.403C263.811 102.597 264.189 102.758 264.705 102.886L266 103.205C266.78 103.394 267.362 103.684 267.744 104.074C268.127 104.46 268.318 104.958 268.318 105.568C268.318 106.068 268.174 106.515 267.886 106.909C267.602 107.303 267.205 107.614 266.693 107.841C266.182 108.068 265.587 108.182 264.909 108.182C264.019 108.182 263.282 107.989 262.699 107.602C262.116 107.216 261.746 106.652 261.591 105.909L262.864 105.591C262.985 106.061 263.214 106.413 263.551 106.648C263.892 106.883 264.337 107 264.886 107C265.511 107 266.008 106.867 266.375 106.602C266.746 106.333 266.932 106.011 266.932 105.636C266.932 105.333 266.826 105.08 266.614 104.875C266.402 104.667 266.076 104.511 265.636 104.409L264.182 104.068C263.383 103.879 262.795 103.585 262.42 103.188C262.049 102.786 261.864 102.284 261.864 101.682C261.864 101.189 262.002 100.754 262.278 100.375C262.559 99.9962 262.939 99.6989 263.42 99.483C263.905 99.267 264.455 99.1591 265.068 99.1591C265.932 99.1591 266.61 99.3485 267.102 99.7273C267.598 100.106 267.951 100.606 268.159 101.227ZM272.905 108.205C272.352 108.205 271.85 108.1 271.399 107.892C270.948 107.68 270.59 107.375 270.325 106.977C270.06 106.576 269.928 106.091 269.928 105.523C269.928 105.023 270.026 104.617 270.223 104.307C270.42 103.992 270.683 103.746 271.013 103.568C271.342 103.39 271.706 103.258 272.104 103.17C272.505 103.08 272.909 103.008 273.314 102.955C273.844 102.886 274.274 102.835 274.604 102.801C274.937 102.763 275.179 102.701 275.331 102.614C275.486 102.527 275.564 102.375 275.564 102.159V102.114C275.564 101.553 275.411 101.117 275.104 100.807C274.801 100.496 274.34 100.341 273.723 100.341C273.083 100.341 272.581 100.481 272.217 100.761C271.854 101.042 271.598 101.341 271.45 101.659L270.178 101.205C270.405 100.674 270.708 100.261 271.087 99.9659C271.469 99.6667 271.886 99.4583 272.337 99.3409C272.791 99.2197 273.238 99.1591 273.678 99.1591C273.958 99.1591 274.28 99.1932 274.643 99.2614C275.011 99.3258 275.365 99.4602 275.706 99.6648C276.051 99.8693 276.337 100.178 276.564 100.591C276.791 101.004 276.905 101.557 276.905 102.25V108H275.564V106.818H275.496C275.405 107.008 275.253 107.21 275.041 107.426C274.829 107.642 274.547 107.826 274.195 107.977C273.842 108.129 273.412 108.205 272.905 108.205ZM273.109 107C273.64 107 274.087 106.896 274.45 106.688C274.818 106.479 275.094 106.21 275.28 105.881C275.469 105.551 275.564 105.205 275.564 104.841V103.614C275.507 103.682 275.382 103.744 275.189 103.801C275 103.854 274.78 103.902 274.53 103.943C274.284 103.981 274.043 104.015 273.808 104.045C273.577 104.072 273.39 104.095 273.246 104.114C272.897 104.159 272.571 104.233 272.268 104.335C271.969 104.434 271.727 104.583 271.541 104.784C271.359 104.981 271.268 105.25 271.268 105.591C271.268 106.057 271.441 106.409 271.786 106.648C272.134 106.883 272.575 107 273.109 107ZM283.148 99.2727V100.409H278.625V99.2727H283.148ZM279.943 97.1818H281.284V105.5C281.284 105.879 281.339 106.163 281.449 106.352C281.563 106.538 281.706 106.663 281.881 106.727C282.059 106.788 282.246 106.818 282.443 106.818C282.591 106.818 282.712 106.811 282.807 106.795C282.902 106.777 282.977 106.761 283.034 106.75L283.307 107.955C283.216 107.989 283.089 108.023 282.926 108.057C282.763 108.095 282.557 108.114 282.307 108.114C281.928 108.114 281.557 108.032 281.193 107.869C280.833 107.706 280.534 107.458 280.295 107.125C280.061 106.792 279.943 106.371 279.943 105.864V97.1818ZM285.165 108V99.2727H286.506V108H285.165ZM285.847 97.8182C285.585 97.8182 285.36 97.7292 285.17 97.5511C284.985 97.3731 284.892 97.1591 284.892 96.9091C284.892 96.6591 284.985 96.4451 285.17 96.267C285.36 96.089 285.585 96 285.847 96C286.108 96 286.331 96.089 286.517 96.267C286.706 96.4451 286.801 96.6591 286.801 96.9091C286.801 97.1591 286.706 97.3731 286.517 97.5511C286.331 97.7292 286.108 97.8182 285.847 97.8182ZM292.507 108.182C291.719 108.182 291.028 107.994 290.433 107.619C289.842 107.244 289.38 106.72 289.047 106.045C288.717 105.371 288.553 104.583 288.553 103.682C288.553 102.773 288.717 101.979 289.047 101.301C289.38 100.623 289.842 100.097 290.433 99.7216C291.028 99.3466 291.719 99.1591 292.507 99.1591C293.295 99.1591 293.984 99.3466 294.575 99.7216C295.17 100.097 295.632 100.623 295.962 101.301C296.295 101.979 296.462 102.773 296.462 103.682C296.462 104.583 296.295 105.371 295.962 106.045C295.632 106.72 295.17 107.244 294.575 107.619C293.984 107.994 293.295 108.182 292.507 108.182ZM292.507 106.977C293.106 106.977 293.598 106.824 293.984 106.517C294.371 106.21 294.657 105.807 294.842 105.307C295.028 104.807 295.121 104.265 295.121 103.682C295.121 103.098 295.028 102.555 294.842 102.051C294.657 101.547 294.371 101.14 293.984 100.83C293.598 100.519 293.106 100.364 292.507 100.364C291.909 100.364 291.416 100.519 291.03 100.83C290.643 101.14 290.357 101.547 290.172 102.051C289.986 102.555 289.893 103.098 289.893 103.682C289.893 104.265 289.986 104.807 290.172 105.307C290.357 105.807 290.643 106.21 291.03 106.517C291.416 106.824 291.909 106.977 292.507 106.977ZM299.849 102.75V108H298.509V99.2727H299.804V100.636H299.918C300.122 100.193 300.433 99.8371 300.849 99.5682C301.266 99.2955 301.804 99.1591 302.463 99.1591C303.054 99.1591 303.571 99.2803 304.014 99.5227C304.457 99.7614 304.802 100.125 305.048 100.614C305.295 101.098 305.418 101.712 305.418 102.455V108H304.077V102.545C304.077 101.86 303.899 101.326 303.543 100.943C303.187 100.557 302.698 100.364 302.077 100.364C301.649 100.364 301.266 100.456 300.929 100.642C300.596 100.828 300.332 101.098 300.139 101.455C299.946 101.811 299.849 102.242 299.849 102.75Z" fill="black"/>
<path id="line" d="M188 89C148 89 95 141 95 189C95 272 128 282 152 292C176 302 234 292 252 256C270 220 251.195 197.119 188 204C96.1583 214 76 244 76 318C76 370.953 76 397 76 439M76 439L53 411M76 439L101 411" stroke="black" stroke-width="5" stroke-linejoin="round"/>
</g>
</svg>
